<?xml version="1.0" encoding="UTF-8" standalone="no"?>
<!-- Created with Inkscape (http://www.inkscape.org/) -->

<svg
   width="210mm"
   height="297mm"
   viewBox="0 0 210 297"
   version="1.1"
   id="svg5"
   xml:space="preserve"
   sodipodi:docname="logo.svg"
   inkscape:version="1.2.2 (732a01da63, 2022-12-09)"
   inkscape:export-filename="logo.png"
   inkscape:export-xdpi="96"
   inkscape:export-ydpi="96"
   xmlns:inkscape="http://www.inkscape.org/namespaces/inkscape"
   xmlns:sodipodi="http://sodipodi.sourceforge.net/DTD/sodipodi-0.dtd"
   xmlns="http://www.w3.org/2000/svg"
   xmlns:svg="http://www.w3.org/2000/svg"><sodipodi:namedview
     id="namedview7"
     pagecolor="#ffffff"
     bordercolor="#000000"
     borderopacity="0.25"
     inkscape:showpageshadow="2"
     inkscape:pageopacity="0.0"
     inkscape:pagecheckerboard="0"
     inkscape:deskcolor="#d1d1d1"
     inkscape:document-units="mm"
     showgrid="false"
     inkscape:zoom="1.0544998"
     inkscape:cx="268.37369"
     inkscape:cy="433.38084"
     inkscape:window-width="1920"
     inkscape:window-height="1017"
     inkscape:window-x="-8"
     inkscape:window-y="-8"
     inkscape:window-maximized="1"
     inkscape:current-layer="layer2" /><defs
     id="defs2"><inkscape:path-effect
       effect="bspline"
       id="path-effect284"
       is_visible="true"
       lpeversion="1"
       weight="33.333333"
       steps="2"
       helper_size="0"
       apply_no_weight="true"
       apply_with_weight="true"
       only_selected="false" /><inkscape:path-effect
       effect="bspline"
       id="path-effect284-4"
       is_visible="true"
       lpeversion="1"
       weight="33.333333"
       steps="2"
       helper_size="0"
       apply_no_weight="true"
       apply_with_weight="true"
       only_selected="false" /></defs><g
     inkscape:groupmode="layer"
     id="layer2"
     inkscape:label="Layer 2"
     style="display:inline"><path
       style="opacity:1;fill:#000000;stroke:#000000;stroke-width:0.264583"
       d="m 56.641129,150.45161 c 0.114713,-13.74228 14.486252,-23.73522 26.422492,-24.82794 15.459038,-1.97339 30.630799,9.848 28.178309,23.58601 -0.71676,4.70444 -2.02854,5.63687 -3.06047,6.60887 l -0.051,0.61617 c 4.36132,5.72615 -2.62617,8.18905 -7.01716,8.48575 -2.040593,3.42124 -4.502921,5.05245 -8.271064,6.68032 -3.35537,1.61845 -6.672244,1.87075 -10.624561,2.2222 -4.078608,0.17929 -7.850099,-0.0949 -11.521493,-1.68409 -3.220024,-1.12807 -5.674632,-3.11346 -7.712361,-5.36471 -2.725365,-2.57066 -4.108732,-5.43955 -5.25605,-8.36089 -0.673262,-2.60485 -0.908445,-5.0359 -1.086642,-7.96169 z"
       id="path1234"
       sodipodi:nodetypes="cccccccccccc" /><path
       style="display:inline;opacity:1;fill:#ffffff;stroke:#000000;stroke-width:0.264583"
       d="m 72.520161,145.17339 -0.487905,0.0443 c 0.119819,-3.70348 -0.446217,-8.00969 0.842742,-11.35484 9.714971,-17.21596 16.772634,8.39477 22.568771,14.31366 0.688488,0.0731 1.524616,-0.11117 1.60142,0.29805 0.26735,1.42449 -1.053181,5.41617 2.398357,6.85607 l 0.665324,0.13307 c -0.630577,1.26562 -5.947925,0.54693 -8.028226,0.84274 -1.13646,0.12061 -2.096101,0.53318 -3.10484,1.02016 l -1.818548,0.84274 -1.330645,0.57662 c -5.756515,1.45534 -8.995088,1.46355 -11.133063,-2.52823 v -0.66532 l 1.907257,-0.17742 c 2.455776,-0.20836 2.586936,-4.52036 2.661291,-6.74194 -0.05097,-9.07504 -4.876763,-13.31965 -6.741935,-3.45966 z"
       id="path1259"
       sodipodi:nodetypes="ccccsccccccccccc" /><path
       style="display:inline;opacity:1;fill:#ffffff;stroke:#000000;stroke-width:0.264583"
       d="m 101.39854,143.33168 c 1.14096,-4.53178 4.25739,-9.48446 5.60603,-6.55972 0.38092,0.82607 0.62081,2.12182 0.63533,4.427 l 0.0627,6.08454 c -0.79582,4.32305 -2.68851,9.66205 -6.52363,8.78181 l -0.0627,-0.56455 c 4.84074,-2.03614 3.03547,-10.55504 0.28227,-12.16908 z"
       id="path1349"
       sodipodi:nodetypes="csccccc" /></g><g
     inkscape:groupmode="layer"
     id="layer3"
     inkscape:label="Layer 3"><path
       style="display:inline;opacity:1;fill:#000000;stroke:#000000;stroke-width:0.279141"
       d="m 102.54532,112.24101 c 0.11738,-14.946936 14.8246,-25.815869 27.03966,-27.004378 10.57779,-0.47172 23.63488,1.995833 27.80029,10.163005 3.33495,6.839953 2.29531,22.120003 -3.74335,28.463303 -0.15505,0.0176 0.018,0.30672 0.0394,0.45692 0.41471,2.90722 -1.34294,5.42839 -5.18144,5.66559 -5.7156,5.03248 -12.66138,8.35161 -19.78071,7.67571 -4.17388,0.195 -8.03348,-0.10323 -11.79061,-1.83173 -3.29524,-1.22695 -5.80718,-3.38639 -7.89251,-5.83498 -2.78903,-2.79601 -4.20471,-5.91639 -5.37882,-9.09382 -0.68898,-2.83319 -0.92967,-5.47735 -1.11201,-8.65962 z"
       id="path1234-6"
       sodipodi:nodetypes="ccccsccccccc" /><path
       style="display:inline;opacity:1;fill:#ffffff;stroke:#000000;stroke-width:0.286318"
       d="m 118.92401,106.62055 -0.52545,0.0483 c 0.12903,-4.02712 -0.48054,-8.709639 0.90759,-12.347115 10.46237,-18.720435 18.06298,9.128375 24.30504,15.564505 0.74144,0.0795 1.64191,-0.12089 1.72462,0.3241 0.28793,1.54897 -1.13419,5.88948 2.58287,7.45521 l 0.71649,0.14469 c -0.67908,1.37624 -6.40551,0.59473 -8.64586,0.91639 -1.22388,0.13114 -2.25735,0.57976 -3.34369,1.10931 l -1.95846,0.91638 -1.433,0.62702 c -6.1994,1.58252 -9.68711,1.59144 -11.98955,-2.74917 v -0.72346 l 2.05398,-0.19292 c 2.6447,-0.22658 2.78594,-4.91541 2.86602,-7.33111 -0.055,-9.86811 -5.25194,-14.483636 -7.2606,-3.762 z"
       id="path1259-9"
       sodipodi:nodetypes="ccccsccccccccccc" /><path
       style="display:inline;opacity:1;fill:#ffffff;stroke:#000000;stroke-width:0.287385"
       d="m 150.59575,104.5747 c 1.23811,-4.926984 4.61991,-10.311565 6.0834,-7.131768 0.41335,0.898108 0.67367,2.306849 0.68943,4.813058 l 0.068,6.61516 c -0.86358,4.70004 -2.91745,10.50464 -7.07914,9.54764 l -0.068,-0.61378 c 5.25295,-2.21371 3.29396,-11.47551 0.30631,-13.23031 z"
       id="path1349-9"
       sodipodi:nodetypes="csccccc" /></g></svg>
